FFmpeg version SVN-r25716, Copyright (c) 2000-2010 the FFmpeg developers  built on Nov 10 2010 12:23:18 with gcc 4.1.2 20080704 (Red Hat 4.1.2-48)  configuration: --enable-libmp3lame --enable-shared --disable-mmx --arch=x86_64  libavutil     50.33. 0 / 50.33. 0  libavcore      0.12. 1 /  0.12. 1  libavcodec    52.94. 4 / 52.94. 4  libavformat   52.84. 0 / 52.84. 0  libavdevice   52. 2. 2 / 52. 2. 2  libavfilter    1.59. 0 /  1.59. 0  libswscale     0.12. 0 /  0.12. 0Input #0, avi, from '/RAID10/data/converted_video_files/9692.avi':  Duration: 00:01:40.40, start: 0.000000, bitrate: 337 kb/s    Stream #0.0: Video: indeo5, yuv410p, 320x240, 25 fps, 25 tbr, 25 tbn, 25 tbc    Stream #0.1: Audio: pcm_s16le, 44100 Hz, 2 channels, s16, 1411 kb/s[buffer @ 0xb88f8c0] w:320 h:240 pixfmt:yuv410p[ffsink @ 0xb88fb30] auto-inserting filter 'auto-inserted scaler 0' between the filter 'src' and the filter 'out'[scale @ 0xb88fe20] w:320 h:240 fmt:yuv410p -> w:320 h:240 fmt:yuv420p flags:0x4Output #0, flv, to '/RAID10/data/converted_video_files/9692.flv':  Metadata:    encoder         : Lavf52.84.0    Stream #0.0: Video: flv, yuv420p, 320x240, q=2-31, 600 kb/s, 1k tbn, 24 tbc    Stream #0.1: Audio: libmp3lame, 22050 Hz, 2 channels, s16, 96 kb/sStream mapping:  Stream #0.0 -> #0.0  Stream #0.1 -> #0.1Press [q] to stop encodingframe=  112 fps=  0 q=4.4 size=     451kB time=3.94 bitrate= 935.8kbits/s dup=0 drop=5    frame=  232 fps=231 q=4.2 size=     899kB time=8.93 bitrate= 824.6kbits/s dup=0 drop=9    frame=  341 fps=232 q=3.9 Lsize=    1367kB time=14.05 bitrate= 797.1kbits/s dup=0 drop=14    video:1189kB audio:165kB global headers:0kB muxing overhead 1.037818%